<?xml version="1.0" encoding="UTF-8" standalone="no"?>
<!DOCTYPE svg PUBLIC "-//W3C//DTD SVG 1.1//EN" "http://www.w3.org/Graphics/SVG/1.1/DTD/svg11.dtd">
<svg width="100%" height="100%" viewBox="0 0 1515 696" version="1.1" xmlns="http://www.w3.org/2000/svg" xmlns:xlink="http://www.w3.org/1999/xlink" xml:space="preserve" xmlns:serif="http://www.serif.com/" style="fill-rule:evenodd;clip-rule:evenodd;stroke-linejoin:round;stroke-miterlimit:2;">
    <g transform="matrix(1.09296,0,0,1.09296,-58.0083,-69.0027)">
        <g id="Layer1">
            <g transform="matrix(181.486,0,0,181.486,350,600)">
                <path d="M0.201,-0.623C0.2,-0.56 0.2,-0.48 0.201,-0.382C0.355,-0.549 0.444,-0.645 0.467,-0.668C0.473,-0.675 0.476,-0.682 0.477,-0.691C0.477,-0.699 0.476,-0.705 0.473,-0.71L0.469,-0.718L0.602,-0.721C0.557,-0.692 0.518,-0.661 0.486,-0.627C0.433,-0.57 0.362,-0.494 0.273,-0.399C0.293,-0.4 0.313,-0.399 0.333,-0.396C0.353,-0.393 0.376,-0.386 0.403,-0.377C0.429,-0.368 0.453,-0.351 0.475,-0.327C0.497,-0.302 0.514,-0.272 0.526,-0.236C0.533,-0.214 0.538,-0.196 0.543,-0.183C0.548,-0.17 0.554,-0.153 0.561,-0.133C0.568,-0.112 0.575,-0.096 0.581,-0.084C0.586,-0.071 0.593,-0.057 0.602,-0.041C0.61,-0.024 0.618,-0.012 0.626,-0.003C0.633,0.007 0.642,0.016 0.652,0.025C0.662,0.034 0.672,0.041 0.683,0.044C0.693,0.047 0.704,0.049 0.717,0.049C0.73,0.049 0.743,0.046 0.756,0.041L0.819,0.016C0.79,0.052 0.759,0.078 0.726,0.094C0.692,0.11 0.66,0.116 0.629,0.113C0.598,0.109 0.57,0.098 0.544,0.079C0.509,0.053 0.467,-0.036 0.42,-0.188C0.408,-0.227 0.394,-0.259 0.377,-0.284C0.36,-0.309 0.342,-0.327 0.325,-0.338C0.308,-0.348 0.292,-0.355 0.278,-0.358C0.264,-0.361 0.25,-0.362 0.237,-0.36C0.228,-0.351 0.216,-0.338 0.201,-0.322C0.201,-0.291 0.201,-0.254 0.202,-0.209C0.202,-0.164 0.202,-0.137 0.202,-0.128C0.202,-0.107 0.204,-0.085 0.207,-0.064C0.21,-0.043 0.214,-0.027 0.218,-0.016L0.223,-0L0.044,-0.001C0.06,-0.041 0.068,-0.083 0.068,-0.127C0.067,-0.191 0.068,-0.356 0.07,-0.622C0.07,-0.641 0.068,-0.658 0.065,-0.674C0.061,-0.69 0.057,-0.701 0.054,-0.708L0.048,-0.718L0.202,-0.718C0.201,-0.689 0.201,-0.657 0.201,-0.623Z" style="fill:rgb(241,189,3);fill-rule:nonzero;"/>
            </g>
            <g transform="matrix(181.486,0,0,181.486,455.443,600)">
                <path d="M0.422,-0.089C0.385,-0.054 0.345,-0.028 0.302,-0.011C0.258,0.006 0.215,0.01 0.172,0.001C0.129,-0.009 0.094,-0.035 0.069,-0.077C0.04,-0.124 0.028,-0.17 0.032,-0.217C0.036,-0.264 0.051,-0.307 0.076,-0.346C0.101,-0.385 0.135,-0.419 0.176,-0.447C0.257,-0.513 0.327,-0.536 0.388,-0.517C0.441,-0.5 0.48,-0.466 0.503,-0.414C0.526,-0.362 0.531,-0.306 0.516,-0.245C0.501,-0.184 0.47,-0.132 0.423,-0.089L0.422,-0.089ZM0.191,-0.422C0.154,-0.388 0.133,-0.345 0.126,-0.294C0.119,-0.243 0.132,-0.189 0.164,-0.134C0.186,-0.099 0.218,-0.076 0.261,-0.064C0.303,-0.051 0.336,-0.052 0.361,-0.067C0.374,-0.074 0.387,-0.084 0.4,-0.097C0.427,-0.141 0.442,-0.188 0.443,-0.237C0.444,-0.286 0.434,-0.33 0.411,-0.368C0.388,-0.405 0.355,-0.431 0.314,-0.444C0.278,-0.456 0.237,-0.449 0.191,-0.422Z" style="fill:rgb(241,189,3);fill-rule:nonzero;"/>
            </g>
            <g transform="matrix(181.486,0,0,181.486,550.361,600)">
                <path d="M0.006,-0.459C0.017,-0.468 0.026,-0.474 0.033,-0.479C0.04,-0.484 0.048,-0.489 0.059,-0.496C0.069,-0.502 0.078,-0.507 0.085,-0.51C0.092,-0.513 0.1,-0.516 0.109,-0.519C0.118,-0.522 0.126,-0.523 0.135,-0.522C0.143,-0.521 0.151,-0.52 0.159,-0.517C0.174,-0.512 0.181,-0.488 0.181,-0.445L0.181,-0.322C0.258,-0.443 0.341,-0.502 0.429,-0.497C0.456,-0.496 0.477,-0.488 0.491,-0.473C0.504,-0.458 0.51,-0.441 0.508,-0.421C0.505,-0.401 0.497,-0.381 0.483,-0.362L0.395,-0.326C0.408,-0.359 0.409,-0.384 0.396,-0.401C0.383,-0.418 0.366,-0.426 0.345,-0.423C0.308,-0.418 0.256,-0.367 0.191,-0.27C0.27,-0.277 0.335,-0.259 0.384,-0.216C0.395,-0.206 0.407,-0.19 0.419,-0.169C0.43,-0.147 0.44,-0.127 0.449,-0.109C0.458,-0.09 0.468,-0.074 0.479,-0.06C0.49,-0.045 0.503,-0.039 0.519,-0.041C0.534,-0.042 0.552,-0.054 0.572,-0.075L0.603,-0.084C0.587,-0.055 0.57,-0.032 0.551,-0.013C0.532,0.007 0.514,0.02 0.497,0.027C0.48,0.034 0.464,0.038 0.449,0.038C0.434,0.037 0.422,0.033 0.411,0.025C0.386,0.006 0.367,-0.027 0.354,-0.074C0.341,-0.12 0.329,-0.15 0.319,-0.165C0.286,-0.216 0.24,-0.24 0.181,-0.238L0.181,-0.11C0.181,-0.085 0.183,-0.069 0.187,-0.064C0.195,-0.053 0.214,-0.049 0.243,-0.052C0.237,-0.047 0.229,-0.042 0.219,-0.035C0.208,-0.028 0.19,-0.02 0.165,-0.011C0.139,-0.001 0.117,0.003 0.098,-0C0.095,-0.001 0.092,-0.002 0.09,-0.003C0.087,-0.004 0.085,-0.006 0.084,-0.009C0.082,-0.011 0.08,-0.013 0.079,-0.016C0.078,-0.019 0.077,-0.022 0.076,-0.027C0.075,-0.031 0.075,-0.035 0.074,-0.038C0.073,-0.041 0.073,-0.046 0.073,-0.052L0.073,-0.1C0.073,-0.113 0.074,-0.164 0.076,-0.252C0.078,-0.339 0.079,-0.386 0.079,-0.392C0.079,-0.419 0.078,-0.435 0.077,-0.442C0.075,-0.449 0.07,-0.455 0.063,-0.46C0.058,-0.463 0.051,-0.464 0.043,-0.464C0.034,-0.464 0.026,-0.463 0.018,-0.462L0.006,-0.459Z" style="fill:rgb(241,189,3);fill-rule:nonzero;"/>
            </g>
            <g transform="matrix(181.486,0,0,181.486,649.815,600)">
                <path d="M0.007,-0.459C0.019,-0.468 0.028,-0.474 0.035,-0.479C0.041,-0.483 0.049,-0.489 0.06,-0.496C0.071,-0.503 0.08,-0.507 0.087,-0.51C0.094,-0.513 0.102,-0.516 0.112,-0.519C0.121,-0.522 0.129,-0.523 0.137,-0.522C0.145,-0.521 0.153,-0.52 0.161,-0.517C0.168,-0.514 0.173,-0.505 0.177,-0.49C0.181,-0.475 0.183,-0.46 0.183,-0.445C0.183,-0.438 0.183,-0.384 0.183,-0.282C0.182,-0.179 0.182,-0.122 0.182,-0.11L0.182,-0.103C0.182,-0.092 0.182,-0.084 0.183,-0.079C0.184,-0.074 0.186,-0.069 0.19,-0.063C0.193,-0.057 0.199,-0.053 0.208,-0.052C0.217,-0.051 0.229,-0.051 0.244,-0.052C0.238,-0.047 0.23,-0.042 0.22,-0.035C0.21,-0.028 0.192,-0.02 0.167,-0.011C0.141,-0.001 0.119,0.003 0.1,-0C0.097,-0.001 0.094,-0.002 0.091,-0.003C0.088,-0.004 0.086,-0.006 0.085,-0.009C0.083,-0.011 0.081,-0.013 0.08,-0.016C0.079,-0.019 0.078,-0.022 0.077,-0.027C0.076,-0.031 0.076,-0.035 0.076,-0.038C0.075,-0.041 0.075,-0.046 0.075,-0.052L0.075,-0.1C0.075,-0.113 0.076,-0.164 0.078,-0.252C0.08,-0.339 0.081,-0.386 0.081,-0.392C0.081,-0.419 0.08,-0.435 0.079,-0.442C0.077,-0.449 0.072,-0.455 0.065,-0.46C0.06,-0.463 0.053,-0.464 0.044,-0.464C0.035,-0.464 0.027,-0.463 0.019,-0.462L0.007,-0.459ZM0.046,-0.595L0.027,-0.648L0.135,-0.693C0.141,-0.677 0.148,-0.66 0.157,-0.643L0.185,-0.593L0.08,-0.545C0.065,-0.562 0.053,-0.579 0.046,-0.595Z" style="fill:rgb(241,189,3);fill-rule:nonzero;"/>
            </g>
            <g transform="matrix(181.486,0,0,181.486,694.098,600)">
                <path d="M0.184,-0.234C0.23,-0.257 0.264,-0.275 0.286,-0.29C0.308,-0.304 0.324,-0.32 0.333,-0.337C0.346,-0.364 0.347,-0.389 0.334,-0.413C0.329,-0.423 0.321,-0.431 0.312,-0.437C0.303,-0.443 0.294,-0.446 0.285,-0.446C0.258,-0.446 0.224,-0.431 0.184,-0.4L0.184,-0.234ZM0.505,-0.459C0.518,-0.468 0.527,-0.475 0.533,-0.479C0.538,-0.483 0.547,-0.489 0.558,-0.496C0.569,-0.503 0.578,-0.507 0.585,-0.511C0.592,-0.514 0.6,-0.516 0.609,-0.519C0.618,-0.522 0.627,-0.523 0.635,-0.523C0.643,-0.522 0.651,-0.52 0.659,-0.517C0.666,-0.515 0.671,-0.506 0.675,-0.491C0.679,-0.476 0.681,-0.461 0.681,-0.446C0.681,-0.439 0.681,-0.385 0.681,-0.282C0.68,-0.179 0.68,-0.122 0.68,-0.11L0.68,-0.103C0.68,-0.092 0.68,-0.085 0.681,-0.08C0.682,-0.075 0.684,-0.069 0.688,-0.064C0.691,-0.058 0.697,-0.054 0.706,-0.053C0.715,-0.051 0.727,-0.051 0.742,-0.052C0.736,-0.047 0.728,-0.042 0.718,-0.035C0.708,-0.028 0.69,-0.02 0.665,-0.011C0.639,-0.001 0.616,0.003 0.597,-0C0.583,-0.003 0.575,-0.017 0.573,-0.044C0.548,-0.017 0.524,0.003 0.501,0.017C0.478,0.03 0.458,0.037 0.442,0.037C0.425,0.037 0.411,0.033 0.399,0.024C0.381,0.009 0.367,-0.008 0.357,-0.025C0.347,-0.042 0.338,-0.061 0.329,-0.083C0.32,-0.105 0.311,-0.124 0.302,-0.139C0.275,-0.181 0.236,-0.197 0.184,-0.187C0.184,-0.042 0.183,0.035 0.182,0.045C0.179,0.068 0.171,0.09 0.159,0.109C0.146,0.128 0.131,0.144 0.114,0.155C0.097,0.166 0.081,0.176 0.065,0.184C0.049,0.191 0.035,0.197 0.024,0.2L0.008,0.204C0.025,0.193 0.037,0.185 0.044,0.179C0.05,0.173 0.058,0.164 0.067,0.153C0.075,0.142 0.08,0.128 0.083,0.112C0.086,0.095 0.087,0.074 0.088,0.049C0.088,0.036 0.087,-0.04 0.085,-0.178C0.083,-0.315 0.082,-0.387 0.082,-0.393C0.081,-0.42 0.08,-0.437 0.079,-0.444C0.078,-0.45 0.073,-0.456 0.066,-0.461C0.061,-0.464 0.054,-0.465 0.045,-0.465C0.036,-0.465 0.028,-0.464 0.02,-0.462L0.008,-0.46C0.021,-0.469 0.03,-0.475 0.036,-0.48C0.042,-0.484 0.05,-0.49 0.061,-0.497C0.072,-0.503 0.081,-0.508 0.088,-0.511C0.095,-0.514 0.102,-0.517 0.112,-0.52C0.121,-0.523 0.129,-0.524 0.138,-0.523C0.146,-0.522 0.154,-0.521 0.162,-0.518C0.175,-0.513 0.183,-0.489 0.184,-0.446L0.184,-0.433C0.223,-0.46 0.262,-0.482 0.3,-0.499C0.325,-0.512 0.35,-0.518 0.377,-0.517C0.403,-0.516 0.421,-0.504 0.43,-0.481C0.435,-0.468 0.438,-0.456 0.439,-0.444C0.44,-0.431 0.439,-0.421 0.436,-0.412C0.433,-0.403 0.429,-0.393 0.422,-0.383C0.415,-0.373 0.409,-0.365 0.404,-0.359C0.398,-0.353 0.391,-0.346 0.382,-0.338C0.331,-0.29 0.285,-0.254 0.244,-0.229C0.296,-0.234 0.338,-0.222 0.37,-0.193C0.381,-0.184 0.392,-0.169 0.405,-0.149C0.417,-0.129 0.428,-0.111 0.438,-0.096C0.448,-0.081 0.46,-0.067 0.473,-0.055C0.486,-0.043 0.5,-0.038 0.517,-0.041C0.534,-0.043 0.552,-0.054 0.572,-0.073L0.573,-0.073L0.573,-0.1C0.573,-0.113 0.574,-0.164 0.576,-0.252C0.578,-0.34 0.579,-0.387 0.579,-0.393C0.578,-0.42 0.577,-0.437 0.576,-0.444C0.575,-0.45 0.57,-0.456 0.563,-0.461C0.558,-0.464 0.551,-0.465 0.542,-0.465C0.533,-0.464 0.525,-0.463 0.517,-0.462L0.505,-0.459ZM0.544,-0.596L0.525,-0.648L0.633,-0.693C0.639,-0.678 0.646,-0.661 0.655,-0.643L0.683,-0.594L0.578,-0.546C0.563,-0.563 0.551,-0.58 0.544,-0.596Z" style="fill:rgb(241,189,3);fill-rule:nonzero;"/>
            </g>
            <g transform="matrix(181.486,0,0,181.486,828.76,600)">
                <path d="M0.27,-0.455C0.334,-0.528 0.353,-0.591 0.326,-0.642C0.308,-0.677 0.281,-0.691 0.245,-0.685C0.232,-0.682 0.219,-0.677 0.206,-0.67C0.193,-0.663 0.181,-0.653 0.17,-0.642C0.159,-0.63 0.153,-0.615 0.154,-0.596C0.154,-0.577 0.162,-0.557 0.177,-0.536C0.189,-0.52 0.22,-0.493 0.27,-0.455ZM0.219,-0.337C0.179,-0.292 0.154,-0.255 0.145,-0.224C0.135,-0.193 0.14,-0.162 0.159,-0.133C0.192,-0.087 0.238,-0.07 0.296,-0.081C0.313,-0.106 0.322,-0.128 0.325,-0.145C0.328,-0.167 0.323,-0.193 0.31,-0.224C0.297,-0.254 0.276,-0.284 0.246,-0.313C0.24,-0.32 0.231,-0.328 0.219,-0.337ZM0.239,-0.725C0.246,-0.728 0.256,-0.731 0.269,-0.734C0.282,-0.737 0.299,-0.739 0.322,-0.742C0.345,-0.745 0.366,-0.741 0.387,-0.732C0.408,-0.722 0.423,-0.706 0.432,-0.684C0.44,-0.665 0.444,-0.647 0.444,-0.63C0.444,-0.612 0.442,-0.596 0.437,-0.582C0.432,-0.568 0.423,-0.553 0.41,-0.536C0.397,-0.519 0.384,-0.505 0.372,-0.493C0.36,-0.48 0.344,-0.465 0.325,-0.446C0.316,-0.438 0.31,-0.432 0.306,-0.428C0.329,-0.408 0.345,-0.393 0.355,-0.382C0.41,-0.321 0.437,-0.264 0.437,-0.21C0.437,-0.189 0.43,-0.168 0.417,-0.148C0.403,-0.127 0.386,-0.108 0.367,-0.093C0.348,-0.078 0.328,-0.064 0.309,-0.052C0.29,-0.039 0.273,-0.03 0.26,-0.024L0.239,-0.014L0.24,-0.015C0.149,0.024 0.082,0.01 0.041,-0.057C0.014,-0.1 0.015,-0.15 0.044,-0.205C0.073,-0.26 0.117,-0.314 0.178,-0.367C0.149,-0.388 0.126,-0.408 0.109,-0.428C0.092,-0.447 0.081,-0.472 0.076,-0.502C0.069,-0.548 0.082,-0.593 0.116,-0.636C0.15,-0.679 0.191,-0.709 0.239,-0.725Z" style="fill:rgb(241,189,3);fill-rule:nonzero;"/>
            </g>
            <g transform="matrix(181.486,0,0,181.486,909.34,600)">
                <path d="M0.502,-0.743L0.502,-0.729C0.492,-0.718 0.478,-0.706 0.461,-0.695C0.444,-0.684 0.429,-0.675 0.416,-0.67L0.398,-0.662C0.367,-0.663 0.333,-0.664 0.295,-0.667C0.257,-0.67 0.233,-0.671 0.222,-0.671C0.211,-0.67 0.188,-0.668 0.151,-0.664L0.15,-0.456C0.153,-0.459 0.158,-0.462 0.163,-0.466C0.168,-0.469 0.179,-0.476 0.196,-0.485C0.213,-0.494 0.229,-0.501 0.245,-0.508C0.261,-0.514 0.28,-0.519 0.302,-0.523C0.323,-0.526 0.343,-0.526 0.362,-0.523C0.38,-0.52 0.398,-0.511 0.416,-0.497C0.434,-0.482 0.449,-0.462 0.461,-0.437C0.476,-0.401 0.479,-0.365 0.468,-0.329C0.457,-0.292 0.437,-0.256 0.406,-0.221C0.375,-0.185 0.34,-0.151 0.3,-0.119C0.259,-0.086 0.217,-0.056 0.174,-0.029C0.13,-0.001 0.09,0.023 0.053,0.044C0.016,0.064 -0.014,0.08 -0.038,0.091L-0.074,0.108L-0.069,0.067C-0.064,0.065 -0.058,0.062 -0.05,0.059C-0.042,0.055 -0.026,0.047 -0.002,0.035C0.022,0.023 0.045,0.011 0.068,-0.003C0.091,-0.016 0.117,-0.032 0.146,-0.051C0.175,-0.07 0.202,-0.09 0.225,-0.11C0.248,-0.129 0.27,-0.151 0.291,-0.176C0.312,-0.201 0.327,-0.225 0.338,-0.249C0.348,-0.272 0.352,-0.298 0.351,-0.325C0.349,-0.352 0.34,-0.379 0.323,-0.404C0.308,-0.425 0.29,-0.439 0.268,-0.444C0.246,-0.448 0.225,-0.447 0.204,-0.438C0.183,-0.429 0.162,-0.419 0.143,-0.408C0.124,-0.396 0.108,-0.385 0.096,-0.374L0.079,-0.358L0.047,-0.35L0.051,-0.637L0.169,-0.712C0.201,-0.719 0.254,-0.723 0.329,-0.725C0.404,-0.726 0.461,-0.732 0.502,-0.743Z" style="fill:rgb(241,189,3);fill-rule:nonzero;"/>
            </g>
            <g transform="matrix(181.486,0,0,181.486,1000.26,600)">
                <path d="M0.34,-0.613C0.315,-0.541 0.28,-0.44 0.235,-0.309L0.341,-0.081L0.444,-0.319C0.39,-0.472 0.355,-0.57 0.34,-0.613ZM0.67,-0.001L0.525,-0C0.529,-0.007 0.533,-0.014 0.536,-0.023C0.541,-0.035 0.538,-0.053 0.529,-0.078C0.493,-0.18 0.47,-0.245 0.46,-0.273L0.341,-0.008L0.22,-0.267C0.181,-0.155 0.159,-0.092 0.154,-0.077C0.147,-0.059 0.145,-0.042 0.148,-0.027L0.156,-0L0.015,-0.001L0.254,-0.67C0.243,-0.666 0.232,-0.662 0.223,-0.657C0.214,-0.652 0.207,-0.647 0.204,-0.644L0.198,-0.639L0.198,-0.72L0.487,-0.72L0.487,-0.639C0.473,-0.651 0.453,-0.661 0.426,-0.67L0.67,-0.001Z" style="fill:rgb(241,189,3);fill-rule:nonzero;"/>
            </g>
            <g transform="matrix(181.486,0,0,181.486,1121.68,600)">
                <path d="M0.182,-0.237C0.245,-0.275 0.286,-0.305 0.303,-0.327C0.33,-0.362 0.336,-0.396 0.321,-0.429C0.316,-0.44 0.308,-0.448 0.295,-0.451C0.282,-0.454 0.269,-0.455 0.256,-0.452C0.237,-0.448 0.212,-0.432 0.181,-0.405C0.182,-0.38 0.182,-0.324 0.182,-0.237ZM0.727,-0.448C0.724,-0.448 0.722,-0.448 0.721,-0.449C0.703,-0.452 0.678,-0.457 0.646,-0.464C0.613,-0.471 0.588,-0.476 0.571,-0.479C0.554,-0.482 0.532,-0.481 0.505,-0.478C0.478,-0.475 0.453,-0.467 0.428,-0.454C0.433,-0.417 0.417,-0.38 0.38,-0.343C0.339,-0.3 0.288,-0.26 0.229,-0.223C0.288,-0.231 0.334,-0.22 0.368,-0.189C0.377,-0.18 0.391,-0.165 0.408,-0.142C0.425,-0.119 0.442,-0.099 0.457,-0.082C0.472,-0.064 0.488,-0.048 0.507,-0.034C0.525,-0.019 0.544,-0.013 0.565,-0.016C0.585,-0.018 0.605,-0.03 0.624,-0.053L0.627,-0.054C0.584,-0.099 0.568,-0.161 0.581,-0.24C0.584,-0.259 0.59,-0.278 0.6,-0.298C0.61,-0.318 0.624,-0.338 0.642,-0.359C0.659,-0.379 0.673,-0.394 0.684,-0.405C0.694,-0.416 0.708,-0.43 0.727,-0.448ZM0.006,-0.456C0.019,-0.465 0.028,-0.472 0.034,-0.476C0.039,-0.479 0.048,-0.485 0.059,-0.492C0.069,-0.499 0.078,-0.504 0.085,-0.507C0.092,-0.51 0.1,-0.512 0.109,-0.515C0.118,-0.518 0.127,-0.519 0.135,-0.519C0.143,-0.518 0.151,-0.516 0.159,-0.513C0.172,-0.508 0.18,-0.486 0.181,-0.446C0.232,-0.489 0.269,-0.514 0.292,-0.523C0.326,-0.532 0.353,-0.533 0.374,-0.525C0.395,-0.517 0.41,-0.502 0.42,-0.481C0.423,-0.476 0.424,-0.472 0.425,-0.468C0.464,-0.496 0.501,-0.517 0.536,-0.53C0.571,-0.543 0.612,-0.55 0.659,-0.551C0.691,-0.552 0.725,-0.549 0.762,-0.544C0.798,-0.539 0.828,-0.534 0.852,-0.53C0.875,-0.525 0.905,-0.524 0.94,-0.527C0.974,-0.529 1.011,-0.537 1.049,-0.55L1.025,-0.513C0.978,-0.478 0.936,-0.456 0.897,-0.447C0.858,-0.438 0.819,-0.435 0.78,-0.44C0.742,-0.403 0.715,-0.367 0.7,-0.333C0.685,-0.299 0.679,-0.253 0.683,-0.196C0.685,-0.167 0.695,-0.142 0.714,-0.122C0.733,-0.1 0.757,-0.085 0.788,-0.076C0.819,-0.066 0.857,-0.065 0.903,-0.073C0.948,-0.08 0.997,-0.097 1.048,-0.124L1.03,-0.095C0.976,-0.059 0.921,-0.032 0.865,-0.014C0.808,0.004 0.758,0.007 0.713,-0.004C0.684,-0.012 0.659,-0.025 0.639,-0.043C0.616,-0.011 0.59,0.012 0.561,0.025C0.531,0.038 0.505,0.042 0.483,0.039C0.461,0.036 0.443,0.028 0.429,0.017C0.41,0.002 0.394,-0.013 0.383,-0.027C0.371,-0.04 0.358,-0.058 0.343,-0.081C0.328,-0.104 0.316,-0.121 0.307,-0.133C0.278,-0.174 0.236,-0.19 0.182,-0.181C0.182,-0.043 0.181,0.034 0.179,0.05C0.176,0.073 0.169,0.095 0.156,0.114C0.142,0.133 0.128,0.149 0.112,0.16C0.095,0.17 0.079,0.18 0.063,0.188C0.046,0.196 0.033,0.201 0.022,0.204L0.005,0.208C0.036,0.189 0.057,0.17 0.068,0.153C0.079,0.135 0.084,0.102 0.085,0.054C0.086,0.039 0.085,-0.038 0.083,-0.178C0.08,-0.318 0.079,-0.388 0.079,-0.389C0.079,-0.416 0.078,-0.432 0.077,-0.439C0.075,-0.446 0.07,-0.452 0.063,-0.457C0.058,-0.46 0.051,-0.461 0.043,-0.461C0.034,-0.461 0.026,-0.46 0.018,-0.458L0.006,-0.456Z" style="fill:rgb(241,189,3);fill-rule:nonzero;"/>
            </g>
        </g>
    </g>
    <g id="Layer8">
        <g id="Layer7" transform="matrix(0.960347,0.0255559,-0.0290016,1.08983,18.7456,-3.80857)">
            <g transform="matrix(1.04055,-0.0244005,0.0276903,0.916927,-19.4003,3.94958)">
                <path d="M1064.01,226.37C1057.11,222.961 1029.77,221.537 1026.28,255.653C1023.21,285.554 1042.69,297.309 1072.76,289.832C1102.61,282.407 1129.34,239.216 1105.55,194.734C1079.36,145.74 984.891,160.375 975.359,197.107C973.84,202.962 975.079,207.472 975.754,211.543C998.33,347.66 884.444,384.441 777.61,414.006C772.293,415.478 737.112,426.714 707.703,409.284C689.42,398.448 679.813,379.941 681.175,361.645C685.989,296.958 728.66,270.858 736.655,253.781C736.689,253.708 738.775,250.15 737.862,242.762C736.836,234.466 732.175,223.722 720.313,215.508C717.352,213.458 706.673,206.58 691.797,205.213C646.53,201.051 610.139,249.204 599.518,263.047C577.736,291.437 555.466,326.087 519.207,345.302C514.758,347.66 498.961,358.187 475.328,360.547C455.9,362.487 434.412,358.744 409.481,349.05C408.371,348.619 408.397,348.568 407.401,347.923C383.804,332.643 381.564,312.656 370.322,310.359C364.924,309.255 354.399,308.721 349.939,332.525C349.752,333.52 349.789,333.532 349.741,333.605C349.49,333.996 349.366,334.509 348.986,334.774C348.972,334.784 347.619,335.082 347.612,335.077C347.221,334.829 346.708,334.704 346.443,334.324C346.177,333.945 346.174,333.43 346.137,332.968C346.135,332.954 346.45,331.223 346.709,330.014C348.709,320.693 353.866,303.32 370.93,306.638C384.815,309.339 386.277,329.827 409.85,344.701C410.899,345.362 410.937,345.283 412.096,345.72C460.299,363.915 489.973,357.347 515.825,341.943C520.589,339.105 536.225,331.874 557.517,308.487C584.227,279.149 600.253,247.119 630.121,222.665C642.438,212.581 677.097,187.097 716.398,206.727C742.306,219.668 746.736,244.221 742.278,255.185C734.592,274.087 691.793,298.275 687.137,362.077C684.912,392.554 717.66,424.241 773.402,408.839C885.179,377.954 992.965,342.222 969.097,209.413C968.373,205.389 965.122,189.549 984.175,174.694C1015.21,150.495 1087.54,147.233 1111.32,192.365C1136.33,239.825 1108.32,287.572 1073.85,295.951C1035.65,305.232 1015.5,285.115 1020.5,251.866C1026.39,212.761 1063.33,215.472 1069.92,223.12C1072.12,225.68 1071.39,228.816 1068.93,230.513C1068.03,231.14 1053.44,239.938 1058.77,253.178C1063.9,265.946 1085.32,274.276 1093.1,254.634C1100.11,236.959 1091.01,221.619 1073.1,214.557C1062.42,210.343 1044.65,208.49 1031.04,219.015C1011.4,234.204 1003.49,262.799 1017.14,291.655C1026.53,311.507 1054.99,330.09 1097.65,314.776C1113.56,309.063 1144.09,293.764 1152.11,258.171C1155.89,241.372 1154.8,217.24 1143.89,196.551C1127.5,165.435 1094.97,152.081 1068.96,150.714C1035.83,148.972 991.186,162.709 963.608,184.386C918.521,219.824 849.915,316.815 813.292,337.714C793.28,349.133 750.486,360.227 737.583,331.438C732.063,319.119 733.66,301.922 736.994,291.097C748.135,254.92 786.125,247.721 788.621,224.227C793.557,177.749 757.512,147.191 721.826,139.484C673.052,128.951 611.188,132.29 543.764,183.415C488.789,225.102 494.424,289.239 453.319,297.955C447.721,299.141 439.146,299.358 433.478,297.644C417.738,292.883 410.561,274.734 388.651,264.209C366.292,253.468 350.598,263.524 339.209,271.853C311.844,291.868 303.43,314.305 300.809,334.964C300.73,335.59 300.715,335.617 300.22,336.005C300.207,336.016 299.066,336.332 299.058,336.328C298.713,336.134 298.271,336.051 298.026,335.74C297.782,335.428 297.755,334.99 297.701,334.598C297.699,334.58 298.018,331.913 298.418,329.533C302.307,306.443 313.868,283.971 343.791,264.334C356.874,255.747 375.819,249.589 400.491,266.644C417.8,278.609 424.306,293.328 439.275,294.491C476.862,297.41 480.896,262.493 502.742,224.14C518.859,195.843 535.237,182.998 551.274,171.781C620.579,123.31 682.209,125.271 723.017,133.956C761.95,142.242 799.648,175.6 794.496,224.853C791.218,256.191 740.412,259.833 739.979,311.482C739.855,326.239 744.59,341.363 765.246,343.444C781.067,345.037 802.112,338.187 814.24,329.949C852.612,303.882 923.447,203.33 967.37,173.988C999.315,152.647 1048.03,139.447 1082.47,146.119C1126.46,154.639 1159.34,188.121 1160.26,237.801C1161.42,300.229 1105.35,323.414 1075.12,326.26C1043.01,329.283 1020.11,313.02 1011.17,293.534C995.471,259.286 1007.91,227.873 1028.69,213.035C1057.48,192.471 1109.97,213.604 1100.57,251.582C1093.46,280.32 1065.55,275.902 1055.12,259.561C1048.99,249.974 1052.23,241.527 1052.62,240.397C1055.1,233.271 1061.12,228.436 1064.01,226.37Z" style="fill:rgb(241,189,3);"/>
            </g>
            <g transform="matrix(1.04055,-0.0244005,0.0276903,0.916927,-19.4003,3.94958)">
                <path d="M319.281,335.542C318.544,335.537 318.511,335.521 317.992,334.995C317.667,334.665 317.58,334.158 317.463,333.709C317.463,333.707 317.506,330.046 317.549,328.624C317.821,319.503 318.966,312.284 322.655,302.059C331.546,277.415 346.569,267.579 349.107,265.846C362.867,256.449 386.548,249.966 404.336,269.033C417.877,283.548 422.752,305.157 432.753,309.178C458.87,319.677 512.353,311.886 533.988,269.145C550.057,237.4 538.858,218.412 554.313,188.086C554.891,186.953 561.563,172.282 586.556,153.737C593.194,148.812 597.656,146.256 597.974,146.069C598.52,145.747 598.548,145.737 599.162,145.884C599.178,145.888 600.133,146.583 600.134,146.592C600.198,146.985 600.41,147.384 600.317,147.77C600.224,148.155 599.889,148.44 599.62,148.73C599.61,148.741 586.089,157.215 572.491,171.765C562.453,182.506 559.026,189.765 556.224,197.202C546.545,222.892 554.81,242.262 539.034,272.852C515.97,317.577 458.829,326.761 430.067,314.779C412.815,307.592 409.831,266.961 380.95,263.111C367.218,261.28 341.647,268.624 327.613,302.428C323.428,312.508 321.788,319.69 321.221,330.209C321.084,332.755 321.148,333.677 321.124,333.734C320.621,334.915 320.655,334.935 320.576,335.013C320.051,335.531 320.018,335.546 319.281,335.542Z" style="fill:rgb(241,189,3);"/>
            </g>
            <path d="M1288.51,147.075C1285.08,146.663 1281.37,146.935 1278.12,148.768C1269.6,153.574 1266.11,166.779 1275.16,178.773C1284.64,191.332 1319.56,202.389 1330.05,185.125C1331.25,183.148 1336.89,174.185 1330,151.474C1316.48,106.925 1268.95,81.719 1237.43,71.899C1194.21,58.43 1120.78,69.909 1085.66,81.763C1057.98,91.108 1027.54,108.112 1006.47,134.552C982.846,164.179 968.519,183.691 963.523,247.215C960.136,290.282 937.867,328.57 867.34,353.8C845.464,361.625 809.683,355.824 793.911,342.413C777.979,328.866 756.144,307.935 768.402,277.842C777.099,256.493 813.855,256.935 818.648,244.534C818.792,244.16 820.395,239.421 819.984,233.339C818.769,215.331 803.18,198.431 781.236,193.235C758.749,187.911 728.082,177.74 664.085,199.531C657.957,201.618 654.276,204.346 648.945,214.003C642.603,225.492 634.228,246.569 606.3,270.462C602.722,273.523 584.983,288.899 537.219,306.587C525.566,310.903 517.372,313.381 517.365,313.381C516.952,313.378 516.501,313.471 516.13,313.313C516.114,313.306 515.296,312.496 515.296,312.488C515.319,312.126 515.194,311.729 515.373,311.403C515.552,311.076 515.948,310.874 516.29,310.672C516.29,310.671 549.148,300.534 577.569,285.228C595.293,275.684 603.507,268.49 611.325,260.861C645.036,227.961 641.174,205.138 659.625,196.869C661.396,196.075 675.062,191.249 689.68,187.699C736.888,176.237 762.7,184.205 782.57,188.825C812.767,195.847 830.811,222.43 824.219,245.23C819.465,261.676 782.671,260.131 774.147,278.933C772.634,282.269 771.79,286.039 771.649,286.671C766.473,309.786 783.641,326.286 798.103,338.579C811.846,350.261 845.028,355.89 865.021,348.755C937.915,322.74 954.394,282.92 957.208,246.831C961.847,187.341 974.699,165.142 996.005,137.903C1002.24,129.937 1011.57,117.346 1030.5,103.509C1062.81,79.891 1096.55,72.274 1107.71,69.724C1147.97,60.523 1204.33,55.122 1240.55,66.845C1279.12,79.329 1324.43,107 1336.95,152.509C1347.54,190.952 1326.81,201.121 1307.03,199.541C1292.82,198.406 1276.28,191.032 1269.32,181.284C1256.57,163.435 1265.9,143.813 1282.09,141.478C1290.69,140.236 1299.01,143.863 1301.3,144.896C1303.92,146.08 1304.2,146.508 1304.49,146.948C1305.56,148.642 1304.42,151.314 1301.31,151.166C1300.97,151.149 1294.04,150.418 1289.08,153.214C1284.8,155.626 1284.15,160.368 1285.03,162.796C1286.84,167.775 1295.43,169.18 1302.45,165.928C1307.78,163.456 1310.82,153.138 1305.94,147.532C1293.83,133.616 1264.67,133.715 1258.69,151.047C1257.29,155.127 1256.91,159.213 1256.84,159.933C1254.95,180.393 1271.27,193.302 1295.44,203.002C1331.2,217.353 1354.37,209.14 1361.77,195.665C1371.25,178.412 1367.67,138.416 1334.47,109.705C1303.64,83.039 1212.66,49.282 1148.99,55.634C1034.98,67.008 989.292,82.534 941.722,116.576C918.013,133.544 896.658,154.355 887.175,192.483C878.404,227.743 893.085,314.937 837.985,321.524C806.631,325.272 788.06,314.563 788.074,289.101C788.076,284.09 788.02,278.512 793.644,272.76C807.407,258.687 841.301,258.559 840.969,233.121C840.964,232.686 840.603,218.927 834.95,207.108C827.015,190.519 811.794,180.033 776.797,172.139C731.161,161.846 691.493,174.035 674.601,179.924C673.887,180.173 673.85,180.171 673.144,179.903C673.128,179.897 672.123,178.985 672.123,178.977C672.129,178.552 671.958,178.092 672.149,177.702C672.339,177.311 672.785,177.05 673.182,176.808C673.182,176.808 675.517,175.984 678.181,175.114C732.049,157.518 769.801,165.919 789.658,171.351C821.187,179.976 842.387,193.679 845.76,230.483C848.95,265.288 800.536,262.365 794.179,281.249C793.768,282.469 793.384,283.717 793.392,288.802C793.412,302.481 798.687,321.274 837.232,316.628C872.172,312.417 875.311,269.107 877.286,230.567C878.366,209.485 878.86,199.946 881.807,188.842C892.744,147.626 917.294,125.31 949.132,104.447C993.846,75.147 1041.26,60.68 1148.27,49.995C1214.06,43.426 1307.77,77.985 1339.81,106.364C1377.13,139.411 1378.65,185.676 1364.64,202.477C1351.42,218.338 1321.27,222.859 1281.58,203.158C1249.59,187.28 1247.36,166.846 1252.17,150.461C1258.97,127.329 1295.93,126.456 1311.09,144.099C1318.29,152.489 1314.54,166.962 1305.1,171.12C1290.59,177.517 1274.25,169.665 1279.08,155.996C1280.65,151.555 1284.16,148.694 1288.51,147.075Z" style="fill:rgb(241,189,3);"/>
            <g transform="matrix(1.04055,-0.0244005,0.0276903,0.916927,-19.4003,3.94958)">
                <path d="M451.74,358.315C451.575,359.033 451.553,359.062 450.927,359.454C450.075,359.987 450.004,359.798 449.024,359.567C443.69,358.307 426.278,355.705 416.356,337.849C407.915,322.657 407.531,304.764 394.916,295.247C385.319,288.006 366.115,285.373 351.276,301.817C350.341,302.853 345.537,308.177 341.52,316.287C337.288,324.832 336.089,333.057 336.058,333.113C335.866,333.457 335.79,333.902 335.479,334.143C335.466,334.153 334.307,334.461 334.299,334.457C333.958,334.262 333.521,334.175 333.28,333.864C333.037,333.55 333.015,333.111 332.953,332.719C332.953,332.716 333.073,331.021 333.326,329.037C333.844,324.982 335.278,314.971 342.475,303.721C352.335,288.307 369.279,279.891 387.146,284.748C406.885,290.114 411.744,308.262 415.799,320.409C419.949,332.839 424.413,344.196 438.534,351.548C440.725,352.688 443.926,354.262 449.377,355.879C450.287,356.149 450.309,356.075 450.376,356.123C451.419,356.871 451.446,356.842 451.505,356.936C451.897,357.562 451.905,357.597 451.74,358.315Z" style="fill:rgb(241,189,3);"/>
            </g>
            <g transform="matrix(1.04055,-0.0244005,0.0276903,0.916927,-19.4003,3.94958)">
                <path d="M1257.5,358.147C1259.4,360.975 1261.06,364.414 1261.61,368.463C1263.24,380.486 1256.43,393.007 1242.4,394.463C1220.65,396.72 1208.29,373.082 1219.21,349.599C1227.35,332.097 1247.81,322.05 1270.39,334.151C1317.36,359.316 1308.29,422.572 1271.35,446.571C1252.17,459.027 1181.65,480.617 1152.04,413.107C1151.29,411.405 1147.53,402.829 1144.72,391.064C1133.4,343.603 1189.3,293.501 1187.63,266.682C1187.63,266.585 1187.19,260.966 1185.88,253.597C1180.26,221.993 1164.78,190.4 1140.39,175.019C1055.15,121.27 1028.78,138.27 1002.08,154.854C961.577,180.021 959.576,262.764 927.187,306.683C895.454,349.714 861.704,388.562 810.827,410.716C782.712,422.959 751.896,419.983 741.912,418.559C737.948,417.994 737.983,417.824 737.745,417.7C735.148,416.348 731.572,414.077 731.046,413.744C702.073,395.344 704.684,376.461 724.902,340.411C724.971,340.288 736.367,321.078 744.998,293.561C757.22,254.596 751.526,238.554 750.73,236.003C742.879,210.857 707.554,179.022 681.747,172.693C644.759,163.621 617.137,177.399 599.61,199.465C584.564,218.408 601.761,261.791 591.206,287.097C575.547,324.64 535.206,357.35 495.61,365.796C482.759,368.537 461.235,370.767 434.51,360.734C402.861,348.854 396.574,303.691 383.185,296.29C383.104,296.245 380.26,294.751 376.673,294.251C372.397,293.655 358.961,292.765 346.974,321.451C345.192,325.716 344.689,331.981 344.649,332.055C344.459,332.402 344.384,332.846 344.075,333.095C344.062,333.105 342.925,333.437 342.917,333.433C342.569,333.244 342.126,333.167 341.878,332.859C341.352,332.207 341.491,332.131 341.582,331.299C342.41,323.7 343.684,320.679 345.939,315.828C360.226,285.081 377.287,289.83 384.051,292.798C399.752,299.685 405.216,345.647 435.917,356.958C459.79,365.753 495.058,370.57 536.763,343.07C556.974,329.742 576.711,309.123 586.57,285.182C596.473,261.133 578.536,217.432 595.349,196.105C612.778,173.998 642.06,157.03 683.598,167.239C711.098,173.998 751.56,209.536 757.548,238.718C763.349,266.994 746.057,315.031 730.679,342.439C714.529,371.224 710.697,386.18 722.32,398.973C728.026,405.253 736.683,410.109 740.268,412.123C751.353,414.018 781.849,416.805 808.752,404.924C856.164,383.986 888.13,349.203 922.198,303.009C953.893,260.032 955.441,177.349 998.293,149.916C999.112,149.392 1003.49,146.587 1008.7,143.625C1035.32,128.466 1067.06,121.446 1143.7,169.778C1173.62,188.643 1190.32,229.193 1193.76,265.531C1196.37,293.051 1149.56,335.751 1149.42,377.666C1149.4,383.042 1149.97,388.038 1153.11,398.178C1176.34,473.119 1243.25,454.106 1263.39,443.951C1263.88,443.703 1280.93,436.225 1290.62,413.983C1302.23,387.329 1296.51,354.42 1266.51,339.116C1245.83,328.57 1226.66,339.603 1222.12,360.252C1218.41,377.136 1228.54,390.954 1243.4,388.051C1250.82,386.602 1253.44,380.967 1254.09,379.517C1255.24,376.979 1256.97,370.81 1254.08,364.64C1251.38,358.867 1246.31,355.184 1245.37,353.326C1244.14,350.883 1246.09,348.173 1248.92,348.648C1285.33,354.769 1282.33,405.052 1255.43,427.346C1253.37,429.06 1249.42,432.281 1239.81,436.271C1188.39,457.629 1167.73,410.755 1169.53,387.69C1173.35,338.76 1194.02,330.8 1206.59,320.375C1215.6,312.903 1217.3,306.677 1218.69,295.079C1224.28,248.306 1200.3,216.725 1164.73,182.372C1131.09,149.889 1058.13,108.781 1012.9,113.393C966.934,118.078 942.269,129.831 893.801,206.299C862.64,255.462 864.013,296.884 809.465,337.189L808.816,337.667C808.365,337.777 807.921,338.062 807.463,337.992C807.447,337.989 806.262,337.267 806.26,337.259C806.149,336.809 805.866,336.365 805.936,335.908C806.007,335.449 806.359,335.074 806.652,334.714C807.02,334.262 821.087,324.972 834.513,308.974C861.24,277.125 865.529,243.081 890.042,203.935C938.444,126.64 964.148,113.356 1012.37,108.248C1059.95,103.207 1134.81,145.399 1169.15,178.594C1203.57,211.871 1233.36,247.112 1223.68,302.784C1219.55,326.574 1200.73,327.141 1188.18,345.25C1181.13,355.412 1177.15,369.373 1175.64,388.173C1174.23,405.714 1189.86,450.328 1237.44,430.561C1245.79,427.092 1250.66,423.934 1255.46,418.853C1272.4,400.935 1275.78,369.1 1257.5,358.147Z" style="fill:rgb(241,189,3);"/>
            </g>
        </g>
        <g id="Layer5">
            <path d="M288.208,339.315C288.325,345.015 288.414,350.785 288.837,354.656C288.925,355.46 289.112,355.52 288.666,356.192C288.657,356.206 287.653,356.87 287.645,356.869C287.26,356.793 286.819,356.85 286.493,356.633C285.803,356.176 285.922,356.061 285.702,355.264C283.765,348.245 282.468,337.41 282.542,336.606C282.729,334.58 284.581,334.154 284.847,334.093C285.101,334.034 294.983,331.821 308.233,330.769C331.987,328.882 349.069,331.433 356.09,332.641C356.101,332.643 358.142,332.733 358.93,334.5C359.226,335.164 359.191,335.844 359.185,335.963C359.16,336.455 358.138,348.397 357.081,354.504C356.369,358.619 355.894,359.89 355.62,360.947C355.229,362.458 354.859,362.29 353.309,362.479C353.301,362.481 352.208,361.629 352.2,361.615C351.616,360.584 352.038,360.519 352.21,359.351C352.593,356.757 352.613,352.83 352.642,351.861C352.825,345.723 352.668,344.416 352.968,338.34C347.098,337.496 338.965,336.536 328.875,336.334C311.938,335.996 297.825,337.961 288.208,339.315Z" style="fill:rgb(241,189,3);"/>
        </g>
        <g id="Layer4">
            <path d="M225.667,441.565C224.831,440.713 224.138,441.174 224.112,439.98C223.853,428.126 223.485,407.206 218.769,388.89C216.902,381.641 213.933,372.216 207.738,362.131C207.302,361.42 203.909,356.956 198.749,352.819C188.009,344.209 159.086,327.127 87.47,359.906C85.301,360.899 81.407,362.727 81.219,362.863C78.264,365.022 73.284,377.657 70.596,394.221C67.306,414.505 68.781,433.999 79.774,434.419C80.634,434.452 80.713,434.363 81.313,434.983C81.325,434.995 81.833,436.286 81.83,436.294C81.646,436.72 81.605,437.246 81.272,437.568C81.165,437.671 80.689,438.132 79.489,438.071C77.061,437.948 63.745,437.723 63.873,407.896C63.96,387.688 70.51,363.62 77.214,358.148C77.908,357.581 78.027,357.477 82.793,355.25C138.034,329.445 186.342,324.71 212.054,357.678C212.356,358.065 212.409,358.031 213.91,360.608C225.609,380.706 227.136,402.389 227.577,416.012C227.872,425.135 227.273,439.998 227.241,440.029C226.718,440.543 226.19,441.051 225.667,441.565Z" style="fill:rgb(241,189,3);"/>
            <path d="M78.472,611.325C84.308,597.371 101.299,560.802 134.717,540.453C151.42,530.282 166.966,528.866 167.582,528.788C168.156,528.715 170.882,528.37 174.783,528.172C175.539,528.134 176.021,528.572 176.104,528.647C176.117,528.659 176.706,529.915 176.703,529.923C176.547,530.359 176.538,530.885 176.227,531.228C175.564,531.957 175.448,531.8 174.466,531.853C153.48,532.991 122.134,545.387 96.212,589.325C87.601,603.919 83.038,616.547 82.625,617.237C82.257,617.851 80.929,619.296 78.778,618.47C78.775,618.469 76.431,617.5 73.414,615.285C63.242,607.818 60.21,597.815 58.458,589.636C52.561,562.1 55.939,516.684 63.528,478.918C71.783,437.844 108.356,359.694 151.267,349.026C172.012,343.868 196.022,352.497 205.496,368.649C220.487,394.208 213.919,412.793 221.32,438.924C221.493,439.533 221.5,439.529 221.498,439.549C221.462,439.942 221.572,440.38 221.387,440.729C221.379,440.744 220.46,441.499 220.451,441.498C220.058,441.462 219.621,441.565 219.272,441.381C218.922,441.195 218.718,440.806 218.508,440.47C218.508,440.47 217.961,438.823 217.368,436.731C210.485,412.469 215.047,393.446 200.787,371.011C191.574,356.517 166.344,348.245 146.137,357.113C109.899,373.017 77.125,441.889 69.517,480.6C58.703,535.616 59.575,584.435 68.866,601.059C71.625,605.995 75.417,609.345 78.472,611.325Z" style="fill:rgb(241,189,3);"/>
            <path d="M186.706,541.349C186.163,541.847 186.128,541.858 185.39,541.826C184.258,541.777 184.385,541.451 183.585,540.651C175.454,532.518 165.811,522.325 156.062,503.931C144.922,482.914 138.945,461.69 135.582,447.743C134.934,445.052 132.021,432.243 130.598,421.347C129.951,416.391 129.065,408.831 128.454,396.001C128.391,394.685 128.672,394.697 129.823,394.05C129.831,394.046 130.925,394.382 130.939,394.393C131.252,394.645 131.41,395.054 131.554,395.428C131.582,395.501 132.184,400.145 137.806,428.944C147.158,476.845 160.34,501.716 174.96,523.11C178.872,528.837 184.937,536.704 186.819,538.763C186.894,538.846 187.327,539.32 187.294,540.081C187.262,540.818 187.249,540.852 186.706,541.349Z" style="fill:rgb(241,189,3);"/>
            <path d="M209.935,553.079C205.103,553.683 195.191,554.046 183.711,542.457C182.606,541.341 182.628,541.207 182.097,538.03C173.713,487.865 200.999,455.876 218.828,438.955L218.72,438.691C218.882,438.594 219.019,438.461 219.18,438.364C219.765,438.012 219.835,438.184 229.502,438.058C236.551,434.252 249.229,425.071 256.766,389.353C257.477,385.986 257.446,385.486 258.053,384.77C258.125,384.684 258.515,384.224 259.195,383.96C275.688,377.562 307.642,365.439 307.902,365.364C308.601,365.16 308.602,365.103 309.325,365.183C310.401,365.302 311.445,366.057 311.861,367.159C313.095,370.425 332.451,422.508 332.907,423.752C333.364,425 332.937,426.404 332.009,427.193C331.699,427.457 331.609,427.491 331.568,427.506C316.913,433.047 316.327,433.133 302.718,438.267C300.368,450.467 289.437,504.208 258.409,534.901C236.046,557.022 216.043,554.125 209.935,553.079ZM220.396,441.834C206.832,455.799 186.649,480.665 186.28,516.837C186.18,526.676 187.384,533.897 188.227,538.537C192.436,542.619 199.469,548.441 209.35,547.018C210.785,546.812 211.453,547.376 215.544,547.615C249.714,549.616 283.194,506.642 296.785,436.279C296.807,436.167 297.008,435.126 297.098,434.886C297.454,433.943 298.325,433.343 298.441,433.299C307.617,429.827 316.838,426.477 326.014,423.005L307.178,372.184L262.591,388.695C258.21,408.016 250.078,432.469 231.262,441.559C231.208,441.584 230.746,441.808 230.584,441.856C230.179,441.978 230.164,441.92 220.396,441.834Z" style="fill:rgb(241,189,3);"/>
            <path d="M215.774,551.586C215.135,551.955 215.099,551.957 214.385,551.765C213.383,551.495 213.513,551.274 212.977,550.384C211.151,547.351 207.268,541.007 206.092,527.453C205.199,517.16 206.806,504.918 207.061,502.975C209.539,484.094 215.558,464.411 221.62,452.053C223.226,448.777 224.85,445.55 228.512,439.446C229.176,438.338 229.401,438.51 230.69,438.596C230.699,438.596 231.523,439.513 231.528,439.528C231.562,439.629 231.683,439.992 231.342,440.85C228.222,448.686 226.216,454.753 223.255,463.189C209.795,501.533 211.87,525.054 212.465,532.133C213.314,542.229 215.646,547.388 215.983,548.166C216.348,549.01 216.444,549.035 216.452,549.096C216.613,550.369 216.653,550.369 216.624,550.477C216.432,551.189 216.411,551.218 215.774,551.586Z" style="fill:rgb(241,189,3);"/>
            <path d="M146.117,470.968C145.727,471.594 145.696,471.614 144.976,471.781C144.011,472.005 144.026,471.752 143.155,471.278C138.696,468.853 129.206,463.896 120.837,452.137C105.437,430.501 106.078,405.198 108.842,392.168C109.213,390.42 110.059,386.28 112.384,379.621C112.596,379.015 113.076,378.726 113.16,378.676C113.176,378.666 114.284,378.479 114.291,378.484C114.588,378.714 114.986,378.857 115.179,379.179C115.632,379.934 115.48,379.989 115.347,380.862C115.211,381.749 114.525,386.25 114.063,392.009C112.99,405.361 112.761,418.083 117.256,431.507C119.474,438.133 123.862,448.504 136.368,460.683C139.491,463.724 143.988,467.482 145.532,468.447C146.157,468.837 146.177,468.867 146.344,469.587C146.511,470.307 146.507,470.343 146.117,470.968Z" style="fill:rgb(241,189,3);"/>
            <path d="M153.81,490.275C153.699,491.004 153.679,491.034 153.084,491.472C152.264,492.076 152.174,491.841 151.16,491.722C148.067,491.358 137.398,490.867 125.643,485.393C102.414,474.576 90.219,453.172 89.612,429.296C89.386,420.386 91.756,411.263 92.152,409.736C92.314,409.113 92.77,408.79 92.85,408.734C92.865,408.723 93.961,408.455 93.969,408.459C94.285,408.667 94.694,408.779 94.912,409.088C95.39,409.764 95.274,409.822 95.205,410.648C95.044,412.566 94.22,422.376 95.957,434.698C100.763,468.793 125.353,478.943 135.064,482.861C143.175,486.132 150.904,487.911 151.668,488.092C152.679,488.331 152.857,488.083 153.472,488.918C153.909,489.512 153.92,489.547 153.81,490.275Z" style="fill:rgb(241,189,3);"/>
            <path d="M300.659,436.68C299.972,436.946 299.936,436.943 299.26,436.644C298.836,436.456 298.594,435.997 298.296,435.641C298.232,435.565 298.236,435.45 298.188,435.362C294.799,429.154 294.353,428.932 290.078,417.89C282.553,398.454 282.221,397.448 281.734,396.112C279.278,389.378 278.888,387.11 277.715,381.658C277.455,380.451 277.723,380.44 278.585,379.554C278.591,379.548 279.666,379.614 279.684,379.622C280.3,379.895 280.609,380.428 280.662,380.519C283.458,385.345 284.694,387.286 287.402,393.922C287.939,395.24 288.369,396.207 295.863,415.656C300.12,426.704 299.939,427.169 301.603,434.043C301.627,434.14 301.707,434.223 301.711,434.322C301.73,434.786 301.859,435.289 301.672,435.713C301.372,436.388 301.347,436.414 300.659,436.68Z" style="fill:rgb(241,189,3);"/>
            <path d="M251.656,538.752C251.343,539.419 251.314,539.442 250.618,539.692C249.542,540.079 249.535,539.728 248.481,539.287C238.991,535.322 228.834,525.775 225.501,501.037C223.27,484.474 225.273,468.856 225.531,466.66C226.317,459.989 227.837,450.854 232.372,439.68C232.856,438.486 233.104,438.623 234.384,438.504C234.393,438.503 235.335,439.271 235.343,439.285C235.525,439.632 235.435,440.066 235.423,440.458C235.421,440.512 234.769,443.243 234.086,447.811C232.963,455.316 232.998,455.319 232.065,462.851C227.756,497.626 234.674,514.185 235.924,517.374C237.087,520.338 239.778,526.237 243.777,530.634C246.097,533.187 248.903,535.408 250.785,536.318C251.447,536.638 251.471,536.664 251.719,537.356C251.968,538.049 251.968,538.085 251.656,538.752Z" style="fill:rgb(241,189,3);"/>
            <path d="M57.784,567.308C57.116,566.996 57.093,566.968 56.84,566.274C56.477,565.275 56.748,565.255 57.182,564.286C58.55,561.234 62.986,550.398 80.552,538.986C98.179,527.535 117.472,521.871 125.368,519.744C130.132,518.461 139.223,516.409 146.153,515.584C149.016,515.243 155.846,514.451 166.534,514.573C167.827,514.588 167.785,514.874 168.376,516.027C168.844,516.943 167.09,517.633 166.926,517.698C166.883,517.715 163.274,518.17 158.039,519.117C152.237,520.167 152.229,520.114 146.45,521.298C139.418,522.739 103.957,528.572 77.177,548.861C75.558,550.087 65.597,557.326 60.719,565.476C60.511,565.823 60.506,565.816 60.33,566.184C60.234,566.384 59.425,568.072 57.784,567.308Z" style="fill:rgb(241,189,3);"/>
            <path d="M69.348,608.267C68.659,608.005 68.633,607.979 68.331,607.304C67.889,606.317 68.179,606.28 68.537,605.26C69.56,602.348 73.043,590.045 80.876,576.887C100.597,543.765 126.984,532.839 141.855,528.142C153.866,524.349 167.545,523.378 169.568,523.209C170.871,523.101 170.868,523.381 171.546,524.501C171.638,524.653 172.177,525.544 170.241,526.288C170.206,526.302 166.24,527.091 157.993,529.332C157.748,529.398 146.041,532.597 136.911,536.287C110.332,547.029 95.941,563.555 84.676,582.402C83.584,584.23 77.719,594.042 72.244,605.941C71.954,606.57 71.957,606.566 71.71,607.21C71.445,607.898 71.419,607.923 70.745,608.225C70.072,608.527 70.036,608.53 69.348,608.267Z" style="fill:rgb(241,189,3);"/>
        </g>
        <g id="Layer3">
            <path d="M126.118,303.688C127.402,303.865 129.743,304.655 133.908,307.325C137.278,309.485 142.525,313.405 143.672,316.352C147.266,325.588 148.185,328.809 144.014,339.793C143.79,340.383 143.771,340.407 143.196,340.672C143.181,340.679 142,340.724 141.993,340.718C141.701,340.449 141.287,340.266 141.121,339.905C140.748,339.095 140.957,339.061 141.251,338.219C144.611,328.597 143.78,326.062 140.308,317.724C139.182,315.02 128.829,308.141 125.645,307.728C125.628,307.177 125.636,307.18 125.566,306.634L125.537,307.767C125.224,307.732 124.621,307.97 123.652,307.017C122.324,305.711 108.459,291.801 108.168,291.348C107.486,290.281 107.9,289.916 106.591,283.215C103.306,266.398 97.481,254.878 102.103,222.902C102.349,221.199 102.472,221.228 103.22,219.68C112.334,200.817 130.446,175.195 169.374,167.024C192.998,162.066 221.852,172.562 246.137,167.112C246.163,167.107 248.055,166.41 249.483,167.702C250.666,168.773 250.518,170.406 250.524,170.609C252.06,220.668 235.492,269.844 177.009,300.215C176.874,300.285 175.462,301.25 173.909,300.666C172.229,300.034 171.186,297.844 172.494,295.937C172.919,295.318 173.688,294.263 174.726,292.804C173.157,292.636 171.773,291.128 172.305,289.174C172.367,288.944 172.711,287.987 174.136,282.808C180.264,260.534 194.554,200.208 196.145,172.333C191.323,171.928 186.561,171.674 181.878,171.782C178.59,171.858 172.356,171.997 161.638,175.274C131.419,184.515 116.445,205.591 107.902,222.909C107.709,223.301 107.707,223.299 107.638,223.732C104.857,241.374 105.733,251.765 106.217,256.295C107.504,268.335 110.434,275.057 112.169,288.999C114.509,291.503 121.812,299.217 126.118,303.688ZM218.409,174.468C222.206,224.583 198.97,267.364 185.238,288.406C198.449,280.207 215.603,266.766 227.887,245.306C243.335,218.319 244.632,189.921 244.39,173.756C235.697,175.244 227.005,175.114 218.409,174.468ZM211.729,173.88C207.722,173.487 203.741,173.043 199.797,172.664C199.703,174.505 199.549,176.999 199.309,179.76C196.934,207.06 188.035,249.304 181.995,274.267C191.983,257.225 206.93,225.35 211.14,181.305C211.464,177.916 211.626,175.554 211.729,173.88Z" style="fill:rgb(241,189,3);"/>
            <path d="M262.654,187.906C262.209,187.894 261.765,187.881 261.321,187.861C258.304,187.727 254.309,187.324 253.701,187.262C253.576,187.25 247.516,186.565 247.512,186.563C247.141,186.395 246.705,186.311 246.417,186.023C246.403,186.01 245.953,184.998 245.957,184.99C246.108,184.648 246.152,184.231 246.417,183.967C246.915,183.469 246.953,183.49 247.655,183.42C253.939,182.795 253.931,182.738 260.228,182.301C260.647,182.272 264.679,181.993 265.474,182.105C267.254,182.357 267.788,183.954 267.869,184.195C268.677,186.611 269.443,190.253 269.556,190.786C272.894,206.651 271.274,225.843 263.07,238.263C259.775,243.252 257.49,244.945 256.37,246.214C255.869,246.781 255.217,246.819 255.104,246.825C255.088,246.826 253.778,246.367 253.774,246.359C253.573,245.943 253.203,245.568 253.177,245.106C253.11,243.945 253.5,244.063 254.158,243.107C257.482,238.276 262.182,228.742 264.023,218.151C266.253,205.325 264.105,193.988 262.654,187.906Z" style="fill:rgb(241,189,3);"/>
            <path d="M110.753,289.574C106.559,293.072 102.041,297.548 95.617,301.951C91.189,304.986 83.35,309.427 78.926,319.808C75.888,326.937 74.68,336.168 78.171,349.506C79.003,352.686 80.742,357.597 81.59,359.093C81.953,359.733 81.955,359.769 81.762,360.48C81.758,360.496 80.91,361.592 80.901,361.593C80.441,361.653 79.968,361.886 79.521,361.764C78.595,361.513 78.7,361.325 78.187,360.514C76.707,358.171 70.3,349.677 69.865,335.948C69.366,320.209 76.573,307.069 88.324,299.568C94.677,295.514 94.689,295.541 99.467,292.705C101.756,291.346 101.82,291.233 107.987,287.782C109.093,287.162 109.195,287.426 110.275,288.093C110.348,288.138 110.298,288.166 110.753,289.574Z" style="fill:rgb(241,189,3);"/>
            <path d="M116.437,345.772C115.747,346.033 115.711,346.03 115.037,345.725C114.615,345.534 114.381,345.069 114.082,344.714C114.04,344.664 114.082,344.642 113.704,343.989C111.816,340.734 109.774,336.292 110.219,328.071C110.714,318.945 114.332,310.811 119.277,307.124C121.024,305.821 122.391,305.122 124.488,304.391C125.078,304.186 125.085,304.091 125.692,304.254C125.709,304.259 126.634,304.964 126.635,304.973C126.692,305.373 126.902,305.785 126.797,306.175C126.611,306.864 126.377,306.71 125.283,307.871C124.874,308.305 123.52,309.741 120.898,313.885C114.811,323.503 116.539,333.994 116.735,336.377C116.774,336.854 117.09,340.712 117.303,342.328C117.359,342.748 117.431,343.215 117.435,343.227C117.655,344.026 117.795,344.061 117.454,344.814C117.15,345.486 117.125,345.512 116.437,345.772Z" style="fill:rgb(241,189,3);"/>
            <path d="M103.991,291.014C104.712,291.218 105.508,291.014 106.229,291.218C106.397,291.265 109.102,292.709 110.286,293.892C111.813,295.417 115.139,299.414 117.312,302.001C120.413,305.695 120.236,306.044 121.324,308.731C121.34,308.77 121.392,308.788 121.406,308.828C121.559,309.265 121.861,309.693 121.822,310.155C121.82,310.172 121.181,311.403 121.172,311.406C120.731,311.547 120.307,311.861 119.845,311.822C119.383,311.782 119.013,311.412 118.607,311.188C118.57,311.167 118.562,311.113 118.526,311.091C116.061,309.564 115.687,309.68 112.57,305.999C107.153,299.6 106.919,299.241 106.571,298.786C104.784,296.455 104.543,295.405 103.814,293.254C103.586,292.581 103.868,292.571 103.991,291.014Z" style="fill:rgb(241,189,3);"/>
            <path d="M304.414,581.824C306.46,579.734 311.34,573.03 310.32,556.879C309.999,551.791 308.52,540.448 303.936,534.352C298.734,527.434 286.266,520.952 268.116,519.88C267.485,519.843 267.459,519.831 267.024,519.371C267.012,519.359 266.591,518.272 266.594,518.263C266.755,517.908 266.8,517.469 267.083,517.201C267.677,516.638 267.755,516.75 268.574,516.751C270.909,516.754 285.88,516.785 298.201,523.386C308.359,528.829 311.45,535.547 313.546,542.357C318.021,556.906 317.999,577.945 307.867,586.951C306.391,588.263 306.101,587.926 302.36,587.914C250.465,587.744 203.79,628.52 181.227,637.103C159.961,645.193 126.736,647.795 99.443,631.263C89.438,625.202 83.096,617.434 81.92,615.994C80.984,614.848 80.488,614.262 80.481,614.237C80.352,613.791 80.048,613.36 80.099,612.899C80.101,612.883 80.772,611.668 80.78,611.666C81.225,611.536 81.656,611.234 82.116,611.285C83.06,611.39 83.014,611.552 83.615,612.292C88.998,618.928 96.093,623.598 97.316,624.402C122.933,641.26 157.173,639.644 179.02,631.315C193.192,625.912 219.351,605.727 250.621,592.916C277.404,581.944 295.389,581.606 304.414,581.824Z" style="fill:rgb(241,189,3);"/>
            <path d="M194.745,625.525C194.994,624.831 195.02,624.805 195.688,624.49C196.108,624.292 196.616,624.372 197.077,624.418C197.256,624.435 197.233,624.51 199.213,625.113C224.001,632.661 233.533,635.476 254.565,636.518C276.853,637.623 297.838,635.013 309.035,619.738C318.655,606.615 313.386,589.633 300.801,586.644C299.783,586.402 299.766,586.471 299.688,586.425C299.342,586.222 298.904,586.125 298.651,585.814C298.64,585.8 298.302,584.705 298.306,584.697C298.493,584.361 298.575,583.935 298.874,583.693C299.467,583.214 299.521,583.281 300.284,583.328C318.511,584.451 329.306,611.027 307.902,630.037C292.92,643.344 268.339,644.099 245.957,642.145C227.421,640.526 217.137,636.644 197.932,628.686C196.895,628.257 196.903,628.245 195.849,627.866C195.156,627.617 195.13,627.592 194.814,626.923C194.499,626.255 194.496,626.219 194.745,625.525Z" style="fill:rgb(241,189,3);"/>
            <path d="M139.172,606.459C138.526,606.104 138.505,606.075 138.299,605.366C138.043,604.487 138.247,604.48 138.625,603.65C138.921,603.002 141.122,597.187 141.957,594.781C144.807,586.571 149.106,576.642 152.603,556.878C153.448,552.102 153.418,552.101 154.223,547.315C155.236,541.288 156.784,534.667 157.206,532.513C157.24,532.339 157.618,530.407 158.902,531.081C159.244,531.26 159.674,531.332 159.923,531.626C160.182,531.931 160.253,532.363 160.325,532.757C160.341,532.843 160.496,537.895 160.497,538.586C160.507,544.437 160.229,548.531 158.807,557.334C157.238,567.047 154.768,575.83 154.322,577.415C150.07,592.531 146.296,598.934 141.923,605.281C141.359,606.099 141.517,606.333 140.563,606.61C139.854,606.816 139.818,606.814 139.172,606.459Z" style="fill:rgb(241,189,3);"/>
            <path d="M147.392,544.706C147.409,544.699 147.426,544.693 147.443,544.686C147.459,544.68 148.844,544.726 148.85,544.733C149.168,545.071 149.633,545.318 149.797,545.752C150.151,546.69 149.909,546.714 149.53,547.643C148.427,550.344 143.746,565.071 133.276,578.529C127.113,586.45 123.248,587.436 122.557,587.645C120.897,588.149 118.828,587.481 118.415,584.982C116.973,576.259 127.157,560.884 136.307,549.646C141.002,543.88 147.143,538.177 148.149,537.244C149.928,535.592 151.622,534.076 151.628,534.073C151.989,533.903 152.332,533.618 152.73,533.607C152.748,533.606 153.837,534.014 153.841,534.023C154.022,534.401 154.365,534.742 154.377,535.161C154.38,535.267 154.39,535.605 153.805,536.348C153.264,537.035 151.151,539.716 147.392,544.706ZM145.84,546.771C143.38,550.051 143.067,550.499 140.006,554.549C134.054,562.422 128.103,571.372 125.655,577.941C130.897,572.321 136.754,562.237 139.597,557.55C139.983,556.914 141.227,554.864 144.294,549.513C145.062,548.174 145.537,547.327 145.84,546.771Z" style="fill:rgb(241,189,3);"/>
            <path d="M101.698,352.027C101.025,352.327 100.988,352.325 100.299,352.058C99.491,351.745 99.557,351.625 99.178,350.846C98.899,350.271 95.897,346.159 95.674,339.481C95.403,331.364 98.403,319.81 106.232,311.575C109.034,308.628 112.75,306.997 113.383,306.719C113.541,306.65 115.128,305.953 115.378,305.926C115.774,305.883 116.183,305.697 116.567,305.803C116.584,305.807 117.506,306.519 117.507,306.528C117.561,306.928 117.769,307.341 117.661,307.731C117.628,307.851 117.565,308.079 116.626,308.904C113.805,311.384 109.697,316.55 108.264,318.68C101.502,328.726 101.564,337.877 101.854,344.101C101.887,344.816 102.08,347.228 102.452,348.992C102.481,349.131 102.495,349.275 102.545,349.408C103.263,351.331 101.9,351.938 101.698,352.027Z" style="fill:rgb(241,189,3);"/>
            <path d="M91.84,355.045C91.129,355.242 91.093,355.237 90.45,354.873C89.688,354.442 89.813,354.307 89.508,353.488C88.823,351.647 85.921,345.97 86.586,337.127C87.74,321.767 96.877,310.433 104.644,306.31C106.906,305.11 108.811,304.337 111.819,303.595C112.992,303.305 113.008,303.589 113.86,304.443C113.866,304.45 113.872,305.661 113.865,305.676C113.64,306.211 113.493,306.088 111.527,307.464C108.872,309.323 103.764,313.753 100.778,317.496C92.59,327.759 92.39,337.414 92.595,346.292C92.632,347.894 92.928,351.961 93.038,352.52C93.207,353.372 93.371,353.423 92.942,354.182C92.578,354.825 92.55,354.848 91.84,355.045Z" style="fill:rgb(241,189,3);"/>
            <path d="M185.711,169.085C186.269,169.566 186.284,169.599 186.338,170.336C186.419,171.442 186.119,171.372 185.416,172.226C185.102,172.608 174.186,186.946 170.49,191.871C159.264,206.826 136.114,235.343 126.556,271.344C125.055,276.997 122.315,287.502 121.42,300.221C121.334,301.447 121.001,301.333 119.857,301.776C119.848,301.78 118.772,301.323 118.76,301.311C118.48,301.028 118.405,300.594 118.291,300.213C118.201,299.913 118.131,296.087 118.125,295.728C117.864,281.386 120.137,268.196 126.737,251.367C132.722,236.106 142.109,221.267 143.68,218.784C154.821,201.17 165.441,188.747 167.536,186.296C175.022,177.539 181.887,170.712 183.13,169.273C183.612,168.715 183.645,168.7 184.382,168.646C185.119,168.593 185.154,168.603 185.711,169.085Z" style="fill:rgb(241,189,3);"/>
            <path d="M115.809,298.148C115.075,298.218 115.041,298.206 114.471,297.735C113.618,297.03 113.878,296.86 113.745,295.758C113.335,292.378 110.95,279.032 111.73,262.361C112.607,243.635 117.195,212.071 138.287,189.082C144.901,181.874 153.968,174.311 169.363,168.571C170.511,168.143 170.534,168.512 171.427,169.357C171.433,169.363 171.479,170.583 171.474,170.598C171.425,170.724 171.285,171.087 170.175,171.673C168.65,172.477 156.675,178.565 145.064,190.643C118.439,218.339 117.799,257.278 117.282,276.294C117.111,282.593 117.228,293.688 117.458,296.153C117.528,296.903 117.114,297.405 117.043,297.491C116.573,298.059 116.542,298.079 115.809,298.148Z" style="fill:rgb(241,189,3);"/>
            <path d="M158.678,307.53L160.659,309.954C159.429,312.298 159.669,312.501 157.698,314.266C155.49,316.241 150.211,320.117 149.399,320.561C147.596,321.548 146.118,321.693 145.496,321.853C145.461,321.862 145.442,321.907 145.407,321.915C144.957,322.025 144.503,322.288 144.047,322.206C144.03,322.203 142.864,321.451 142.862,321.442C142.763,320.99 142.491,320.539 142.573,320.084C142.655,319.627 143.06,319.294 143.319,318.909C143.338,318.881 143.383,318.878 143.403,318.85C144.283,317.566 144.493,316.606 147.091,314.672C151.7,311.242 151.627,311.148 153.894,309.528C156.025,308.004 156.163,308.263 158.678,307.53Z" style="fill:rgb(241,189,3);"/>
        </g>
        <g id="Layer2">
            <path d="M271.41,301.503C273.451,304.016 274.272,307.512 273.028,311.702C272.501,313.477 271.468,313.685 270.382,314.286C262.76,318.502 260.178,326.855 259.3,329.216C258.076,332.506 256.602,337.103 248.379,341.457C233.91,349.117 198.724,352.965 178.931,312.286C178.796,312.009 178.631,311.668 177.289,308.799C176.958,308.092 177.189,307.461 177.229,307.352C177.234,307.336 178.205,306.283 178.214,306.283C178.691,306.264 179.198,306.065 179.647,306.229C180.613,306.583 180.502,306.761 180.941,307.693C181.047,307.917 183.523,313.174 187.572,318.727C208.063,346.835 236.347,341.355 246.328,335.507C254.143,330.929 252.017,328.325 256.591,319.929C258.876,315.735 261.77,313.075 262.011,312.844C264.121,310.828 266.104,309.569 267.335,308.884C267.57,307.489 267.472,305.361 264.871,304.093C264.653,303.987 263.171,303.586 262.605,302.11C262.003,300.541 262.817,298.711 264.385,298.107C265.115,297.826 269.674,297.309 269.221,291.773C267.46,290.992 264.649,289.272 261.195,285.269C261.162,285.23 260.24,284.333 260.198,283.059C260.19,282.819 260.141,281.345 261.563,280.387C262.509,279.75 262.989,280.065 264.541,279.284C268.343,277.369 268.014,272.686 267.93,271.45C265.884,268.749 254.469,265.237 252.119,256.825C248.754,244.776 257.623,225.492 248.823,202.118C247.72,199.189 246.262,196.305 246.013,195.813C245.701,195.196 245.698,195.165 245.897,194.5C245.902,194.483 246.709,193.487 246.718,193.486C247.145,193.444 247.588,193.245 247.999,193.368C248.845,193.622 248.786,193.751 249.22,194.52C264.155,220.988 254.892,244.954 257.881,255.175C259.566,260.941 270.238,263.62 273.175,268.173C273.515,268.698 274.329,269.751 274.142,273.533C273.943,277.586 272.326,281.598 268.669,284.04C269.722,284.953 270.935,285.824 272.11,286.261C273.092,286.625 273.736,286.533 274.665,287.901C275.074,288.503 276.27,293.124 274.566,297.262C273.794,299.138 272.632,300.507 271.41,301.503Z" style="fill:rgb(241,189,3);"/>
            <path d="M179.331,302.2C180.058,302.324 180.085,302.353 180.505,302.962C181.108,303.837 180.881,303.924 180.66,304.965C180.647,305.027 179.279,315.361 170.998,315.888C168.712,316.034 162.197,315.05 155.987,309.763C141.699,297.596 140.455,271.116 154.203,264.04C165.015,258.475 179.495,264.501 178.905,284.48C178.872,285.614 178.553,285.961 178.465,286.057C178.453,286.07 177.391,286.567 177.382,286.564C177.004,286.429 176.546,286.423 176.251,286.152C176.157,286.066 175.866,285.799 175.704,284.65C173.552,269.453 163.971,265.318 156.451,269.864C147.79,275.101 148.387,297.718 162.639,307.11C165.428,308.947 169.774,310.714 171.526,310.519C172.365,310.425 174.401,309.935 176.345,305.96C177.342,303.921 177.094,303.824 177.202,303.659C177.906,302.585 177.877,302.56 177.969,302.496C178.573,302.079 178.608,302.076 179.331,302.2Z" style="fill:rgb(241,189,3);"/>
            <path d="M208.375,338.521C208.679,339.201 209.047,339.851 209.351,340.532C209.436,340.723 210.073,342.148 209.926,343.085C209.764,344.114 208.922,346.446 208.387,347.972C207.602,350.212 207.16,350.165 205.979,351.045C205.962,351.058 205.972,351.091 205.958,351.107C205.655,351.458 205.447,351.941 205.03,352.144C205.015,352.151 203.63,352.232 203.624,352.226C203.276,351.919 202.79,351.716 202.587,351.299C202.385,350.882 202.52,350.374 202.498,349.911C202.497,349.889 202.526,349.87 202.52,349.849C202.136,348.427 201.759,348.191 202.526,345.945C203.048,344.415 203.827,342.061 204.336,341.151C204.799,340.324 206.18,339.596 206.365,339.499C207.024,339.152 207.716,338.868 208.375,338.521Z" style="fill:rgb(241,189,3);"/>
            <path d="M306.839,344.146C277.417,368.328 273.891,371.345 266.503,376.817C261.857,380.259 262.073,387.082 262.021,387.261C261.911,387.642 261.933,388.092 261.686,388.401C261.676,388.414 260.638,388.985 260.63,388.982C260.251,388.873 259.803,388.893 259.494,388.647C258.901,388.174 258.977,388.095 258.869,387.342C258.767,386.637 257.691,379.485 261.859,374.33C264.993,370.453 283.555,355.24 303.743,338.661C303.877,338.552 305.221,337.448 305.437,337.322C307.159,336.317 308.666,337.379 308.893,337.538C312.266,339.913 318.612,347.765 310.544,359.687C306.38,365.84 305.855,365.411 301.876,367.8C301.113,368.258 298.794,369.65 292.827,374.271C290.339,376.197 289.907,376.597 289.669,376.817C289.128,377.318 289.094,377.329 288.356,377.302C288.339,377.301 287.079,376.723 287.076,376.715C286.914,376.28 286.58,375.872 286.597,375.409C286.634,374.387 286.874,374.462 287.604,373.741C289.583,371.783 294.408,366.047 300.891,361.762C302.116,360.953 302.421,360.977 305.456,356.313C306.045,355.409 310.445,349 306.839,344.146Z" style="fill:rgb(241,189,3);"/>
            <g transform="matrix(0.874191,0,0,1,39.1719,0)">
                <path d="M361.952,364.993C356.875,364.727 346.825,364.41 334.72,366.677C333.834,366.843 326.18,368.194 316.229,370.803C315.85,370.902 314.046,371.375 311.504,372.1C310.839,372.29 310.817,372.406 310.167,372.179C310.151,372.174 309.149,371.28 309.149,371.271C309.145,370.882 308.982,370.465 309.147,370.104C309.316,369.734 309.725,369.479 310.08,369.229C310.083,369.227 312.603,368.034 315.452,366.796C327.977,361.351 341.84,357.614 363.365,358.854C364.823,358.938 366.102,358.825 367.797,361.365C369.634,364.117 369.992,367.5 370.424,370.869C370.45,371.076 370.928,372.773 369.681,374.031C368.911,374.807 367.87,375.007 367.69,375.042C366.245,375.319 353.484,377.212 331.785,382.846C330.322,383.226 320.811,385.81 318.689,386.662C317.922,386.97 317.881,386.969 317.089,386.714C317.071,386.708 315.907,385.767 315.906,385.759C315.884,385.295 315.666,384.804 315.849,384.369C316.242,383.436 316.468,383.576 317.478,383.12C320.403,381.799 328.615,377.41 342.327,373.891C349.989,371.925 357.373,370.539 363.108,369.521C362.836,367.575 362.547,366.129 361.952,364.993Z" style="fill:rgb(241,189,3);"/>
            </g>
            <g transform="matrix(0.861285,0,0,1,44.805,0)">
                <path d="M362.013,383.203C363.319,380.39 364.219,375.961 363.563,374.515C363.486,374.346 362.654,372.512 363.819,372.256C365.459,371.897 365.703,371.752 366.78,372.879C369.477,375.698 370.317,382.045 367.902,386.608C367.251,387.836 366.275,388.16 364.097,389.11C355.089,393.038 344.198,396.073 338.433,397.649C334.313,398.775 331.435,399.297 330.818,399.409C327.017,400.1 327.008,400.035 323.174,400.595C322.011,400.765 321.964,401.09 320.903,400.641C320.885,400.633 319.823,399.59 319.824,399.581C319.858,399.118 319.697,398.61 319.934,398.194C320.172,397.778 320.718,397.556 321.142,397.271C321.225,397.216 321.345,397.223 321.439,397.184C323.061,396.513 322.98,396.372 327.295,394.692C335.414,391.53 341.366,390.758 353.507,386.449C356.508,385.384 360.168,383.94 362.013,383.203Z" style="fill:rgb(241,189,3);"/>
            </g>
            <g transform="matrix(0.896216,0,0,1,33.9375,0)">
                <path d="M358.485,397.032C358.917,396.169 359.517,394.717 360.014,392.205C360.245,391.04 360.75,386.571 360.813,386.422C360.973,386.048 360.999,385.6 361.298,385.303C361.311,385.29 362.468,384.785 362.478,384.788C362.916,384.919 363.446,384.911 363.788,385.188C364.026,385.38 364.492,386.914 364.539,387.068C365.628,390.659 367.201,394.472 364.348,400.196C363.839,401.216 363.572,401.393 361.028,402.914C354.916,406.57 342.464,411.755 334.274,412.973C329.342,413.707 329.317,413.523 327.79,413.704C327.7,413.714 327.617,413.774 327.526,413.768C327.011,413.735 326.437,413.817 325.988,413.587C325.972,413.579 325.025,412.481 325.027,412.472C325.092,412.012 324.973,411.497 325.23,411.095C325.486,410.692 326.027,410.501 326.452,410.237C326.525,410.192 326.627,410.205 326.708,410.174C328.267,409.573 331.353,407.983 337.35,406.043C347.47,402.768 351.512,401.003 358.485,397.032Z" style="fill:rgb(241,189,3);"/>
            </g>
            <g transform="matrix(0.965372,0,0,1,11.462,0)">
                <path d="M351.497,411.216C352.979,409.119 353.211,407.828 354.71,401.364C354.852,400.752 354.77,400.7 355.224,400.249C355.291,400.182 355.861,399.617 356.319,399.775C356.742,399.92 357.263,399.915 357.585,400.217C357.615,400.245 358.568,403.195 358.852,404.711C358.95,405.235 360.199,409.75 356.768,414.751C356.518,415.116 356.523,415.483 353.304,417.571C346.785,421.799 339.928,423.779 336.96,424.216C335.034,424.5 333.644,424.587 333.354,424.605C332.807,424.639 332.259,424.66 331.713,424.706C331.646,424.712 331.587,424.764 331.52,424.76C331.041,424.73 330.51,424.826 330.089,424.602C330.073,424.594 329.176,423.511 329.177,423.502C329.229,423.041 329.109,422.527 329.34,422.12C329.571,421.714 330.073,421.52 330.46,421.245C330.514,421.207 330.593,421.221 330.653,421.191C330.771,421.132 332.693,420.106 332.87,420.012C333.048,419.917 333.053,419.93 335.145,418.937C337.685,417.73 340.779,416.998 344.872,415.109C347.997,413.666 350.538,411.909 351.497,411.216Z" style="fill:rgb(241,189,3);"/>
            </g>
            <path d="M246.787,259.604C246.949,260.324 246.939,260.359 246.542,260.983C246.11,261.66 245.998,261.546 245.245,261.819C244.681,262.024 243.642,262.887 240.37,263.422C236.674,264.027 224.969,261.929 221.114,258.965C220.631,258.594 219.876,258.073 218.446,256.576C217.123,255.191 217.528,254.435 217.621,254.261C218.343,252.912 218.735,253.48 220.247,253.697C221.494,253.877 221.495,253.851 222.739,254.044C225.206,254.424 225.159,254.615 227.848,255.368C229.903,255.944 232.89,256.969 239.047,257.417C241.406,257.589 244.028,258.253 244.495,258.236C245.274,258.207 245.327,258.044 245.984,258.462C246.605,258.858 246.626,258.887 246.787,259.604Z" style="fill:rgb(241,189,3);"/>
            <path d="M239.116,242.44C239.579,243.025 240.11,243.555 240.574,244.14C240.577,244.144 240.713,244.443 241.098,245.21C242.263,247.528 241.602,248.756 242.264,253.825C242.585,256.286 242.757,256.992 241.969,259.249C241.746,259.886 241.494,261.058 241.435,261.132C241.425,261.146 240.213,261.821 240.204,261.819C239.759,261.692 239.233,261.722 238.87,261.435C238.505,261.148 238.403,260.633 238.183,260.224C238.17,260.2 238.187,260.166 238.173,260.142C237.868,259.62 237.791,259.677 237.489,259.157C236.817,258.004 236.399,257.522 235.952,253.259C235.29,246.939 236.311,245.803 236.395,245.628C236.588,245.228 236.61,245.128 237.423,243.907C237.522,243.758 237.556,243.791 239.116,242.44Z" style="fill:rgb(241,189,3);"/>
            <path d="M248.452,230.774C248.241,230.827 246.814,231.186 246.183,229.289C246.142,229.167 245.164,227.467 243.34,226.655C243.012,226.509 237.658,223.586 227.98,227.633C224.061,229.271 221.632,231.073 218.185,233.225C217.801,233.464 215.885,234.728 215.12,235.289C214.645,235.638 214.221,235.98 214.22,235.98C213.883,236.179 213.595,236.529 213.206,236.574C213.19,236.576 212.024,236.227 212.02,236.22C211.833,235.879 211.512,235.58 211.467,235.195C211.449,235.033 211.408,234.68 212.159,233.285C214.328,229.263 216.776,226.622 221.906,223.693C229.027,219.627 243.372,215.846 248.563,224.621C249.405,226.044 249.64,227.772 249.679,228.059C249.691,228.141 249.693,228.225 249.709,228.307C249.872,229.147 250.008,229.2 249.572,229.934C249.514,230.03 249.182,230.59 248.452,230.774Z" style="fill:rgb(241,189,3);"/>
        </g>
    </g>
</svg>
